# xmcd
#
# Track frame offsets:
#	150
#	16223
#	33165
#	49758
#	63851
#	80289
#	94402
#	112108
#	123785
#	141979
#	157666
#	178246
#	195152
#	210784
#	222994
#	242898
#	256866
#	273579
#	294891
#	311658
#
# Disc length: 4372 seconds
#
# Revision: 0
# Processed by: cddbd v1.5.2PL0 Copyright (c) Steve Scherf et al.
# Submitted via: dBpowerAMP V4.0
#
DISCID=0f111214
DTITLE=John Denver - The Country Roads Collection [CD3]
DYEAR=1997
DGENRE=Country
TTITLE0=Calypso
TTITLE1=Come And Let Me Look In Your Eyes
TTITLE2=Like A Sad Song
TTITLE3=Polka Dots And Moonbeams
TTITLE4=In The Grand Way
TTITLE5=How Can I Leave You Again
TTITLE6=Ripplin' Waters
TTITLE7=It Amazes Me
TTITLE8=Singing Skies And Dancing Waters
TTITLE9=Dearest Esmerelda
TTITLE10=Thirsty Boots
TTITLE11=I Want To Live
TTITLE12=Southwind
TTITLE13=Garden Song
TTITLE14=What's On Your Mind
TTITLE15=You're So Beautiful
TTITLE16=In My Heart
TTITLE17=The Mountain Song
TTITLE18=Song For The Life
TTITLE19=Autograph
EXTD=Amazon entry: http://www.amazon.com/Country-Roads-Collection-John-Denver/dp/B000002X27/ref=pd_bbs_sr_1/104-0879035-9642350?ie=UTF8&s=music&qid=1183584743&sr=1-1
EXTT0=
EXTT1=
EXTT2=
EXTT3=
EXTT4=
EXTT5=
EXTT6=
EXTT7=
EXTT8=
EXTT9=
EXTT10=
EXTT11=
EXTT12=
EXTT13=
EXTT14=
EXTT15=
EXTT16=
EXTT17=
EXTT18=
EXTT19=
PLAYORDER=
